# xmcd
#
# Track frame offsets:
#	150
#	24552
#	50312
#	71694
#	90548
#	106002
#	131878
#	150287
#	163970
#	181619
#	197841
#
# Disc length: 2936 seconds
#
# Revision: 1
# Processed by: cddbd v1.5.2PL0 Copyright (c) Steve Scherf et al.
# Submitted via: audiograbber 1.83.01
#
DISCID=870b760b
DTITLE=J. Micheal Laferty - Vagabond Moon
DYEAR=1999
DGENRE=Country
TTITLE0=Vagabond Moon
TTITLE1=Heart Like a Compass
TTITLE2=Barely Getting By
TTITLE3=I Don't Know These Stars
TTITLE4=Honey It's Me
TTITLE5=The Way Love Goes
TTITLE6=Echo's
TTITLE7=It Amazes Me
TTITLE8=Till I Have To
TTITLE9=Don't Come Around Much Anymore
TTITLE10=You Wouldn't Recognize The Place
EXTD=
EXTT0=
EXTT1=
EXTT2=
EXTT3=
EXTT4=
EXTT5=
EXTT6=
EXTT7=
EXTT8=
EXTT9=
EXTT10=
PLAYORDER=
